<?xml version="1.0" standalone="no"?>
<!DOCTYPE svg PUBLIC "-//W3C//DTD SVG 20010904//EN"
 "http://www.w3.org/TR/2001/REC-SVG-20010904/DTD/svg10.dtd">
<svg version="1.0" xmlns="http://www.w3.org/2000/svg"
 width="1890.000000pt" height="1890.000000pt" viewBox="0 0 1890.000000 1890.000000"
 preserveAspectRatio="xMidYMid meet">
<metadata>
Created by potrace 1.11, written by Peter Selinger 2001-2013
</metadata>
<g transform="translate(0.000000,1890.000000) scale(0.100000,-0.100000)"
fill="#000000" stroke="none">
<path d="M2993 16629 c-18 -18 -19 -11339 -1 -11357 17 -17 1399 -17 1416 0 9
9 12 544 12 2345 l0 2333 809 0 809 0 764 -1027 c421 -566 803 -1082 851
-1148 47 -66 272 -370 500 -675 229 -305 630 -844 894 -1197 l478 -643 880 3
880 2 9 26 c8 23 -76 136 -1050 1413 -1420 1860 -1937 2537 -2290 2996 -163
212 -304 397 -315 412 l-19 27 57 11 c668 133 1196 334 1626 617 635 419 1062
1019 1242 1746 104 421 125 945 54 1410 -50 334 -131 591 -276 878 -54 106
-129 239 -165 294 -381 571 -951 980 -1716 1235 -478 160 -923 239 -1622 292
-235 17 -3810 24 -3827 7z m3707 -1308 c657 -43 1050 -127 1405 -300 440 -215
743 -535 884 -934 200 -568 138 -1315 -149 -1782 -100 -164 -290 -368 -454
-489 -339 -251 -797 -421 -1336 -495 -386 -53 -622 -62 -1677 -68 l-953 -5 0
2047 0 2047 1058 -5 c591 -3 1130 -10 1222 -16z"/>
<path d="M2720 4310 l0 -70 7110 0 7110 0 0 70 0 70 -7110 0 -7110 0 0 -70z"/>
<path d="M10060 3050 l0 -860 120 0 120 0 2 300 3 299 360 -299 360 -299 154
-1 153 0 -365 303 c-202 166 -366 304 -366 307 0 3 98 73 217 157 119 84 284
200 366 258 l150 105 -160 0 -159 0 -352 -250 c-194 -137 -355 -250 -358 -250
-3 0 -5 245 -5 545 l0 545 -120 0 -120 0 0 -860z"/>
<path d="M2710 2986 l0 -796 130 0 130 0 0 330 0 330 157 0 157 0 324 -330
324 -330 161 1 162 0 -342 338 c-189 186 -343 340 -343 343 0 3 21 9 46 13
201 30 375 118 451 229 71 104 84 258 30 368 -50 102 -182 199 -327 241 -150
44 -213 49 -642 54 l-418 5 0 -796z m800 614 c215 -27 330 -111 347 -250 12
-103 -47 -205 -149 -256 -109 -55 -181 -66 -470 -71 l-268 -5 0 296 0 296 233
0 c127 0 266 -5 307 -10z"/>
<path d="M6225 3341 c-202 -33 -340 -121 -381 -243 -25 -77 -15 -177 22 -231
61 -86 140 -119 407 -172 195 -38 265 -63 301 -106 76 -90 21 -195 -127 -241
-101 -32 -366 -32 -502 -1 -49 12 -98 24 -107 28 -16 6 -18 -1 -18 -73 l0 -79
58 -16 c204 -56 464 -60 657 -11 223 57 344 208 306 383 -31 146 -131 206
-439 261 -204 37 -252 52 -297 95 -31 29 -35 38 -35 83 0 66 37 111 118 144
82 32 320 32 469 0 56 -12 109 -25 117 -28 14 -5 16 5 16 70 0 90 4 87 -141
116 -113 23 -340 34 -424 21z"/>
<path d="M7668 3340 c-127 -23 -217 -61 -308 -129 -30 -23 -57 -41 -60 -41 -4
0 -17 34 -30 75 l-24 75 -93 0 -93 0 0 -565 0 -565 120 0 120 0 0 399 0 399
55 50 c152 139 415 193 568 118 31 -15 66 -41 78 -57 46 -65 49 -98 49 -516
l0 -393 120 0 121 0 -3 443 c-3 427 -4 444 -24 488 -46 98 -132 167 -253 201
-75 21 -270 32 -343 18z"/>
<path d="M8918 3340 c-83 -10 -204 -35 -240 -49 -27 -10 -28 -13 -28 -87 0
-68 2 -75 18 -69 56 22 215 47 332 52 162 7 250 -5 337 -48 105 -50 143 -118
143 -250 l0 -61 -27 6 c-151 32 -221 40 -368 40 -177 0 -252 -13 -362 -65
-130 -62 -197 -160 -198 -289 0 -133 70 -239 199 -299 95 -44 157 -56 301 -55
179 1 315 40 423 121 34 25 52 24 52 -5 0 -9 5 -34 11 -54 l10 -38 99 0 100 0
0 413 c0 480 0 483 -81 571 -60 66 -153 116 -274 147 -91 23 -333 34 -447 19z
m372 -630 c47 -6 109 -15 138 -21 l52 -10 0 -109 c0 -109 0 -109 -29 -129 -55
-40 -177 -91 -251 -107 -82 -17 -217 -15 -284 6 -60 18 -122 82 -136 139 -28
117 54 208 210 234 51 9 218 7 300 -3z"/>
<path d="M4370 2963 c0 -197 4 -386 9 -420 26 -176 150 -298 358 -355 109 -29
361 -31 478 -5 217 50 353 169 385 336 6 30 10 216 10 427 l0 374 -119 0 -119
0 -5 -382 c-2 -247 -8 -395 -15 -417 -46 -138 -185 -209 -392 -198 -146 7
-240 48 -295 129 -42 62 -45 96 -45 491 l0 377 -125 0 -125 0 0 -357z"/>
</g>
</svg>
