<?xml version="1.0" standalone="no"?>
<!DOCTYPE svg PUBLIC "-//W3C//DTD SVG 20010904//EN"
 "http://www.w3.org/TR/2001/REC-SVG-20010904/DTD/svg10.dtd">
<svg version="1.0" xmlns="http://www.w3.org/2000/svg"
 width="1890.000000pt" height="1890.000000pt" viewBox="0 0 1890.000000 1890.000000"
 preserveAspectRatio="xMidYMid meet">
<metadata>
Created by potrace 1.11, written by Peter Selinger 2001-2013
</metadata>
<g transform="translate(0.000000,1890.000000) scale(0.100000,-0.100000)"
fill="#000000" stroke="none">
<path d="M767 16842 c-16 -17 -17 -526 -17 -7119 0 -6866 1 -7100 18 -7116 17
-16 93 -17 884 -17 825 0 866 1 881 18 16 17 17 236 17 2940 l0 2922 1023 0
1022 -1 990 -1334 c1084 -1462 1865 -2512 2782 -3743 l598 -802 1100 2 1100 3
9 26 c8 24 -95 161 -1320 1767 -1841 2411 -2477 3244 -2825 3697 -432 562
-472 615 -467 621 3 2 79 20 169 38 664 137 1274 358 1749 634 981 570 1621
1484 1805 2577 47 281 59 438 59 790 0 354 -11 502 -60 790 -45 270 -150 639
-233 816 -108 233 -134 286 -191 384 -463 806 -1224 1390 -2260 1735 -693 231
-1397 343 -2395 380 -156 6 -1148 10 -2346 10 -1998 0 -2077 -1 -2092 -18z
m4171 -1612 c545 -14 848 -36 1187 -85 638 -93 1155 -297 1540 -608 107 -86
306 -294 378 -394 197 -276 319 -599 372 -983 22 -162 30 -496 16 -660 -47
-541 -195 -943 -474 -1290 -489 -609 -1306 -965 -2437 -1064 -407 -36 -526
-39 -1742 -43 l-1228 -5 0 2571 0 2571 1003 0 c551 0 1174 -5 1385 -10z"/>
</g>
</svg>
